Coordinates
version=1
nRows=17
nColumns=24
inDegrees=yes

Units are S.I. units (second, meters, Newtons, ...)
Angles are in degrees.

endheader
time	pelvis_tilt	pelvis_list	pelvis_rotation	pelvis_tx	pelvis_ty	pelvis_tz	hip_flexion_r	hip_adduction_r	hip_rotation_r	knee_angle_r	ankle_angle_r	subtalar_angle_r	mtp_angle_r	hip_flexion_l	hip_adduction_l	hip_rotation_l	knee_angle_l	ankle_angle_l	subtalar_angle_l	mtp_angle_l	lumbar_extension	lumbar_bending	lumbar_rotation
      5.47000000	      3.41938863	     -6.68738719	     -3.28444897	     -0.27613577	      0.91854693	     -0.14914299	    -15.14606377	     10.86657092	      2.39681245	    -13.19178686	     17.12400208	      1.05297450	      0.00000000	     14.42628918	     -3.88092026	     -6.79502125	     -0.58776721	      5.69937858	      0.64374637	      0.00000000	    -22.71408430	      7.11377094	      5.10625288
      5.48000000	      3.52116250	     -6.57933164	     -3.49887865	     -0.26519769	      0.91848239	     -0.14986374	    -15.02667822	     10.52239092	      2.20761372	    -14.94597409	     16.58648204	      1.41333416	      0.00000000	     14.08999309	     -3.71802981	     -5.93918624	     -1.38166360	      4.62827372	      0.05084444	      0.00000000	    -22.70710969	      6.93152078	      5.14147481
      5.49000000	      3.67231644	     -6.39799008	     -3.66468910	     -0.25420122	      0.91875683	     -0.15069177	    -14.77288165	     10.07828268	      1.72970467	    -16.98440747	     15.86309699	      1.98711709	      0.00000000	     13.66547075	     -3.45098135	     -4.79374330	     -2.10949444	      3.32340624	     -0.78467797	      0.00000000	    -22.74059848	      6.67439640	      5.08781751
      5.50000000	      3.84974819	     -6.13310332	     -3.78807219	     -0.24321709	      0.91935839	     -0.15158258	    -14.35944825	      9.53862393	      1.11105222	    -19.28538547	     14.80889493	      2.44859051	      0.00000000	     13.25118780	     -3.08237614	     -3.64827772	     -2.89407460	      2.01836122	     -1.58041410	      0.00000000	    -22.79568735	      6.32695944	      4.96783344
      5.51000000	      4.05832125	     -5.80330893	     -3.86975711	     -0.23228275	      0.92026491	     -0.15251879	    -13.77857903	      8.91922732	      0.36383222	    -21.85423307	     13.35504235	      2.70481246	      0.00000000	     12.85411713	     -2.63973175	     -2.70060947	     -3.75814689	      0.90119119	     -2.16476908	      0.00000000	    -22.87884199	      5.91750780	      4.75681587
      5.52000000	      4.29187649	     -5.41574397	     -3.87145483	     -0.22149262	      0.92139682	     -0.15351046	    -13.04868118	      8.24162244	     -0.48049396	    -24.61091816	     11.44282387	      2.70145202	      0.00000000	     12.56741502	     -2.13502944	     -2.05701575	     -4.86620942	      0.09640065	     -2.43168149	      0.00000000	    -23.00041116	      5.44177581	      4.50142940
      5.53000000	      4.57492574	     -4.99831270	     -3.82327113	     -0.21083926	      0.92270577	     -0.15454767	    -12.20353452	      7.50578161	     -1.42186295	    -27.53489155	      9.05199479	      2.57012972	      0.00000000	     12.30507664	     -1.60429449	     -1.79011183	     -6.12180657	     -0.36018852	     -2.49219160	      0.00000000	    -23.19225425	      4.94035276	      4.15826161
      5.54000000	      4.73035730	     -4.62740741	     -3.72137825	     -0.20040011	      0.92382733	     -0.15562586	    -11.06272434	      6.82928921	     -2.34411232	    -30.59048124	      6.08031901	      1.92498142	      0.00000000	     12.22152118	     -1.13195426	     -1.61092750	     -7.46085171	     -0.43079067	     -2.58686889	      0.00000000	    -23.24098343	      4.52589795	      3.82028282
      5.55000000	      4.86944786	     -4.27994538	     -3.60830737	     -0.19017093	      0.92488521	     -0.15670939	     -9.78396869	      6.16933328	     -3.16258079	    -33.69548385	      2.55097980	      0.98108446	      0.00000000	     12.15134310	     -0.70145843	     -1.70188643	     -8.79532792	     -0.20947512	     -2.50957001	      0.00000000	    -23.30202632	      4.14897142	      3.47172562
      5.56000000	      4.95786337	     -3.97615528	     -3.51634736	     -0.18017126	      0.92577185	     -0.15775599	     -8.33662308	      5.54578344	     -3.85708685	    -36.82699595	     -1.44005400	     -0.21849412	      0.00000000	     12.08791883	     -0.33178850	     -1.94022447	    -10.04476008	      0.25483310	     -2.36255225	      0.00000000	    -23.33144877	      3.82889025	      3.15459433
      5.57000000	      5.02110100	     -3.70238460	     -3.46964365	     -0.17040731	      0.92651174	     -0.15874904	     -6.76120264	      4.95369513	     -4.36667012	    -39.95722617	     -5.78345061	     -1.58895788	      0.00000000	     11.96759844	     -0.00228089	     -2.31895802	    -11.13079298	      0.89920471	     -2.08094701	      0.00000000	    -23.38187545	      3.54805098	      2.91023873
      5.58000000	      4.98737733	     -3.44099377	     -3.48432280	     -0.16085476	      0.92696374	     -0.15969997	     -4.98321329	      4.38668560	     -4.68901555	    -43.08724123	    -10.21834657	     -3.01775534	      0.00000000	     11.83857562	      0.34620238	     -2.47927531	    -12.00045408	      1.52210023	     -2.24623770	      0.00000000	    -23.34541538	      3.29750735	      2.66270344
      5.59000000	      4.98127181	     -3.21162767	     -3.61129686	     -0.15150274	      0.92737737	     -0.16049532	     -3.17219912	      3.88829157	     -4.73146136	    -46.14253037	    -14.57606738	     -4.45637786	      0.00000000	     11.55382672	      0.67864120	     -2.58429405	    -12.64141996	      2.19053474	     -2.42938606	      0.00000000	    -23.39388276	      3.06450707	      2.56901535
      5.60000000	      4.97528525	     -2.94488079	     -3.82161682	     -0.14230673	      0.92767707	     -0.16118967	     -1.29879736	      3.37908883	     -4.61436793	    -49.13583465	    -18.39213965	     -5.81393326	      0.00000000	     11.17554532	      1.07995155	     -2.65477460	    -13.09175377	      2.78840579	     -2.84831767	      0.00000000	    -23.47270295	      2.78545065	      2.47889630
      5.61000000	      5.00693089	     -2.70906754	     -4.08793209	     -0.13323466	      0.92799787	     -0.16178980	      0.54024813	      2.96149908	     -4.34500793	    -51.95963941	    -21.45658797	     -7.10381704	      0.00000000	     10.65592226	      1.48919922	     -2.52631880	    -13.35388445	      3.34709880	     -3.42899208	      0.00000000	    -23.62512685	      2.54089650	      2.47823592
      5.62000000	      5.07070935	     -2.45253807	     -4.39198606	     -0.12424758	      0.92833298	     -0.16231986	      2.33360697	      2.56942670	     -4.00457471	    -54.59138864	    -23.38908300	     -8.33029823	      0.00000000	     10.03848961	      1.94787461	     -2.34209273	    -13.48242603	      3.82555859	     -4.19623969	      0.00000000	    -23.82699718	      2.27184144	      2.47111816
      5.63000000	      5.16500355	     -2.20868337	     -4.68689616	     -0.11531444	      0.92873088	     -0.16282294	      4.03826985	      2.24415896	     -3.64917199	    -56.94987210	    -24.04655319	     -9.53335432	      0.00000000	      9.34106054	      2.41844927	     -2.04390748	    -13.51358443	      4.25240302	     -5.09221426	      0.00000000	    -24.06362949	      2.02745430	      2.44261208
